<?xml version="1.0" encoding="UTF-8" standalone="no"?>
<!-- Created with Inkscape (http://www.inkscape.org/) -->

<svg
   xmlns:dc="http://purl.org/dc/elements/1.1/"
   xmlns:cc="http://creativecommons.org/ns#"
   xmlns:rdf="http://www.w3.org/1999/02/22-rdf-syntax-ns#"
   xmlns:svg="http://www.w3.org/2000/svg"
   xmlns="http://www.w3.org/2000/svg"
   xmlns:xlink="http://www.w3.org/1999/xlink"
   xmlns:sodipodi="http://sodipodi.sourceforge.net/DTD/sodipodi-0.dtd"
   xmlns:inkscape="http://www.inkscape.org/namespaces/inkscape"
   width="210mm"
   height="297mm"
   viewBox="0 0 210 297"
   version="1.1"
   id="svg1615"
   inkscape:version="0.92.4 (5da689c313, 2019-01-14)"
   sodipodi:docname="buttonModel.svg">
  <defs
     id="defs1609">
    <radialGradient
       inkscape:collect="always"
       xlink:href="#linearGradient3448"
       id="radialGradient1572"
       gradientUnits="userSpaceOnUse"
       gradientTransform="matrix(1.1763151,0.00662405,-0.00666166,1.1829948,-263.63815,7.9778363)"
       cx="314.98825"
       cy="90.196289"
       fx="314.98825"
       fy="90.196289"
       r="119.12871" />
    <linearGradient
       inkscape:collect="always"
       id="linearGradient3448">
      <stop
         id="stop3442"
         offset="0"
         style="stop-color:#4d4d4d;stop-opacity:0" />
      <stop
         style="stop-color:#585858;stop-opacity:0"
         offset="0.69680482"
         id="stop3444" />
      <stop
         id="stop3446"
         offset="1"
         style="stop-color:#5e4d37;stop-opacity:0.2509225" />
    </linearGradient>
    <filter
       height="1.024"
       y="-0.012"
       width="1.024"
       x="-0.012"
       id="filter1005-9-5-9-2-8-8-3-3-5-2"
       style="color-interpolation-filters:sRGB"
       inkscape:collect="always">
      <feGaussianBlur
         id="feGaussianBlur1007-2-0-9-9-7-8-7-7-8-08"
         stdDeviation="1.1815507"
         inkscape:collect="always" />
    </filter>
    <filter
       inkscape:collect="always"
       style="color-interpolation-filters:sRGB"
       id="filter4876-62-5-4-4-6"
       x="-0.023998072"
       width="1.047996"
       y="-0.024001928"
       height="1.0480039">
      <feGaussianBlur
         inkscape:collect="always"
         stdDeviation="0.4988557"
         id="feGaussianBlur4878-4-2-8-6-5" />
    </filter>
    <linearGradient
       inkscape:collect="always"
       xlink:href="#linearGradient16971"
       id="linearGradient1574"
       gradientUnits="userSpaceOnUse"
       gradientTransform="translate(2633.8548,-1865.7041)"
       x1="-2646.2515"
       y1="1246.4858"
       x2="-2593.457"
       y2="1299.0577" />
    <linearGradient
       inkscape:collect="always"
       id="linearGradient16971">
      <stop
         style="stop-color:#ffffff;stop-opacity:1;"
         offset="0"
         id="stop16967" />
      <stop
         style="stop-color:#ffffff;stop-opacity:0.14953271"
         offset="1"
         id="stop16969" />
    </linearGradient>
    <filter
       inkscape:collect="always"
       style="color-interpolation-filters:sRGB"
       id="filter3450"
       x="-0.012003385"
       width="1.0240068"
       y="-0.011996617"
       height="1.0239933">
      <feGaussianBlur
         inkscape:collect="always"
         stdDeviation="0.27476076"
         id="feGaussianBlur3452" />
    </filter>
  </defs>
  <sodipodi:namedview
     id="base"
     pagecolor="#ffffff"
     bordercolor="#666666"
     borderopacity="1.0"
     inkscape:pageopacity="0.0"
     inkscape:pageshadow="2"
     inkscape:zoom="2.8"
     inkscape:cx="439.20578"
     inkscape:cy="702.54896"
     inkscape:document-units="mm"
     inkscape:current-layer="layer5"
     showgrid="false"
     inkscape:window-width="3440"
     inkscape:window-height="1377"
     inkscape:window-x="-8"
     inkscape:window-y="-8"
     inkscape:window-maximized="1" />
  <metadata
     id="metadata1612">
    <rdf:RDF>
      <cc:Work
         rdf:about="">
        <dc:format>image/svg+xml</dc:format>
        <dc:type
           rdf:resource="http://purl.org/dc/dcmitype/StillImage" />
        <dc:title></dc:title>
      </cc:Work>
    </rdf:RDF>
  </metadata>
  <g
     inkscape:groupmode="layer"
     id="layer2"
     inkscape:label="backgoround">
    <rect
       style="opacity:1;fill:#000000;fill-opacity:1;stroke:none;stroke-width:0.26500002;stroke-linecap:butt;stroke-linejoin:miter;stroke-miterlimit:4;stroke-dasharray:none;stroke-dashoffset:0;stroke-opacity:1;paint-order:fill markers stroke"
       id="rect1560"
       width="64.411957"
       height="64.411972"
       x="84.56443"
       y="-163.92827"
       transform="scale(1,-1)"
       inkscape:export-filename="C:\Users\Bruno\Documents\DCS_stream_deck\ka50\pvi800\7.png"
       inkscape:export-xdpi="60"
       inkscape:export-ydpi="60" />
  </g>
  <g
     inkscape:groupmode="layer"
     id="layer3"
     inkscape:label="button">
    <path
       style="opacity:1;fill:#1f1f1f;fill-opacity:1;stroke:#4f4f4f;stroke-width:4.61729574;stroke-linecap:square;stroke-linejoin:miter;stroke-miterlimit:4;stroke-dasharray:none;stroke-dashoffset:0;stroke-opacity:1"
       d="m 92.711604,103.72744 c 0,0 9.775576,-0.56821 24.052106,-0.56821 14.27674,0 24.05221,0.56821 24.05221,0.56821 2.18031,0.10316 3.94,1.75716 3.94,3.9399 0,0 0.4261,7.85779 0.56821,24.05221 0.142,16.19443 -0.56821,24.05212 -0.56821,24.05212 -0.10316,2.18021 -1.75716,3.94 -3.94,3.94 0,0 -7.78674,0.49705 -24.05221,0.5681 -16.26537,0.0716 -24.052106,-0.5681 -24.052106,-0.5681 -2.180211,-0.10316 -3.93989,-1.75737 -3.93989,-3.94 0,0 -0.49716,-7.36053 -0.56811,-24.05212 -0.0716,-16.69168 0.56811,-24.05221 0.56811,-24.05221 0.103159,-2.18032 1.75726,-3.9399 3.93989,-3.9399 z"
       id="path1562"
       inkscape:connector-curvature="0"
       sodipodi:nodetypes="szsszsszsszss" />
  </g>
  <g
     inkscape:label="dirt"
     inkscape:groupmode="layer"
     id="layer1">
    <path
       style="color:#000000;font-style:normal;font-variant:normal;font-weight:normal;font-stretch:normal;font-size:medium;line-height:normal;font-family:sans-serif;font-variant-ligatures:normal;font-variant-position:normal;font-variant-caps:normal;font-variant-numeric:normal;font-variant-alternates:normal;font-feature-settings:normal;text-indent:0;text-align:start;text-decoration:none;text-decoration-line:none;text-decoration-style:solid;text-decoration-color:#000000;letter-spacing:normal;word-spacing:normal;text-transform:none;writing-mode:lr-tb;direction:ltr;text-orientation:mixed;dominant-baseline:auto;baseline-shift:baseline;text-anchor:start;white-space:normal;shape-padding:0;clip-rule:nonzero;display:inline;overflow:visible;visibility:visible;opacity:1;isolation:auto;mix-blend-mode:normal;color-interpolation:sRGB;color-interpolation-filters:linearRGB;solid-color:#000000;solid-opacity:1;vector-effect:none;fill:none;fill-opacity:1;fill-rule:nonzero;stroke:#000000;stroke-width:0.88599998;stroke-linecap:square;stroke-linejoin:miter;stroke-miterlimit:4;stroke-dasharray:none;stroke-dashoffset:0;stroke-opacity:1;filter:url(#filter4876-62-5-4-4-6);color-rendering:auto;image-rendering:auto;shape-rendering:auto;text-rendering:auto;enable-background:accumulate"
       d="m 13.570172,-619.08879 c 13.5047,0 22.7207,0.5371 22.7207,0.5371 h 0.014 0.012 c 1.0214,0.048 1.6523,0.6579 1.6523,1.5527 v 0.061 0.059 c 0,0 0.4024,7.3976 0.5371,22.75 0.1343,15.3144 -0.5312,22.6329 -0.5312,22.6329 v 0.047 0.047 c -0.048,1.0213 -0.6558,1.6543 -1.5507,1.6543 h -0.07 -0.07 c 0,0 -7.3081,0.4678 -22.7187,0.5352 -15.3914996,0.068 -22.6601996,-0.5332 -22.6601996,-0.5332 h -0.039 -0.037 c -1.0212004,-0.048 -1.6543004,-0.6581 -1.6543004,-1.5528 v -0.074 -0.074 c 0,0 -0.468,-6.8948 -0.5352,-22.711 -0.068,-15.7983 0.5313,-22.6503 0.5313,-22.6503 v -0.043 -0.043 c 0.048,-1.0214 0.658,-1.6523 1.5527004,-1.6523 h 0.063 0.064 c 0,0 9.21819997,-0.5371 22.7226996,-0.5371 z"
       id="path1564"
       inkscape:connector-curvature="0"
       transform="matrix(1.0526315,0,0,1.0526318,102.47632,757.14136)" />
    <path
       style="color:#000000;font-style:normal;font-variant:normal;font-weight:normal;font-stretch:normal;font-size:medium;line-height:normal;font-family:sans-serif;font-variant-ligatures:normal;font-variant-position:normal;font-variant-caps:normal;font-variant-numeric:normal;font-variant-alternates:normal;font-feature-settings:normal;text-indent:0;text-align:start;text-decoration:none;text-decoration-line:none;text-decoration-style:solid;text-decoration-color:#000000;letter-spacing:normal;word-spacing:normal;text-transform:none;writing-mode:lr-tb;direction:ltr;text-orientation:mixed;dominant-baseline:auto;baseline-shift:baseline;text-anchor:start;white-space:normal;shape-padding:0;clip-rule:nonzero;display:inline;overflow:visible;visibility:visible;opacity:1;isolation:auto;mix-blend-mode:normal;color-interpolation:sRGB;color-interpolation-filters:linearRGB;solid-color:#000000;solid-opacity:1;vector-effect:none;fill:url(#radialGradient1572);fill-opacity:1;fill-rule:nonzero;stroke:none;stroke-width:1.89961994;stroke-linecap:square;stroke-linejoin:miter;stroke-miterlimit:4;stroke-dasharray:none;stroke-dashoffset:0;stroke-opacity:1;filter:url(#filter1005-9-5-9-2-8-8-3-3-5-2);color-rendering:auto;image-rendering:auto;shape-rendering:auto;text-rendering:auto;enable-background:accumulate"
       d="M 1.3349975,0.99177126 H 209.65269 c 7.80696,0 13.99525,6.18829804 13.99525,13.99524774 V 223.30473 c 0,7.80695 -6.18829,13.99719 -13.99525,13.99719 H 1.3349975 c -7.80695,0 -13.9972005,-6.19024 -13.9972005,-13.99719 V 14.987019 c 0,-7.8069497 6.1902505,-13.99524774 13.9972005,-13.99524774 z"
       id="path1566"
       inkscape:connector-curvature="0"
       transform="matrix(0.21844382,0,0,0.21831766,93.72614,105.71042)" />
  </g>
  <g
     inkscape:groupmode="layer"
     id="layer4"
     inkscape:label="specular">
    <path
       style="opacity:1;fill:none;fill-opacity:0.35686275;stroke:url(#linearGradient1574);stroke-width:0.62034994;stroke-linecap:butt;stroke-linejoin:miter;stroke-miterlimit:4;stroke-dasharray:none;stroke-dashoffset:0;stroke-opacity:1;filter:url(#filter3450)"
       d="m -9.0471276,-621.09319 c 0,0 10.4083,-0.4356 22.6312996,-0.5292 12.223,-0.093 22.6313,0.5292 22.6313,0.5292 2.3832,0.056 4.303,1.9191 4.303,4.303 0,0 0.5292,10.6889 0.5292,22.6313 0,11.9424 -0.5292,22.6313 -0.5292,22.6313 -0.056,2.3832 -1.9191,4.303 -4.303,4.303 0,0 -11.5308,0.7163 -22.6313,0.5292 -11.1004996,-0.1871 -22.6312996,-0.5292 -22.6312996,-0.5292 -2.3832004,-0.056 -4.3030004,-1.9191 -4.3030004,-4.303 0,0 -0.4356,-10.0341 -0.5292,-22.6313 -0.094,-12.5972 0.5292,-22.6313 0.5292,-22.6313 0.056,-2.3832 1.9191,-4.303 4.3030004,-4.303 z"
       id="path1568"
       inkscape:connector-curvature="0"
       sodipodi:nodetypes="szsszsszsszss"
       transform="matrix(1.0526315,0,0,1.0526318,102.47636,757.1414)" />
  </g>
  <g
     inkscape:groupmode="layer"
     id="layer5"
     inkscape:label="text" />
</svg>
